#!OML:ASF F:\VICON\USERDATA\INSTALL\rory3\rory3.ASF
:FULLY-SPECIFIED
:DEGREES
2975
root 0.907429 9.88459 -8.09554 -24.8143 -1.31194 1.00889
lowerback 34.3872 1.70061 -1.88706
upperback 14.4768 1.52527 -0.130863
thorax -1.59812 0.669731 0.38287
lowerneck -9.13452 -1.69237 -8.83451
upperneck -11.8845 -0.72103 12.3276
head -1.88603 -0.216745 5.2348
rclavicle -1.88845e-015 1.18277e-014
rhumerus -23.8165 7.09242 -72.3029
rradius 35.6883
rwrist 7.97976
rhand -22.2564 4.95593
rfingers 7.12502
rthumb 4.16119 -24.9832
lclavicle -1.88845e-015 1.18277e-014
lhumerus -17.0283 4.13577 70.3894
lradius 26.2982
lwrist -17.3972
lhand -27.2701 22.0259
lfingers 7.12502
lthumb -0.680917 52.0046
rfemur -65.7216 -17.2985 -3.08819
rtibia 114.928
rfoot -17.8346 9.15419
rtoes -13.4165
lfemur -59.3057 21.3877 6.22048
ltibia 113.998
lfoot -17.8845 -18.3766
ltoes -15.1584
2976
root 0.907565 9.88607 -8.09745 -24.8962 -1.27498 1.14138
lowerback 34.3219 1.72727 -2.03044
upperback 14.5356 1.51699 -0.130217
thorax -1.51345 0.658095 0.463378
lowerneck -9.2493 -1.6837 -8.99073
upperneck -11.6628 -0.703694 12.3766
head -1.80281 -0.196492 5.27376
rclavicle -9.34288e-015 1.08338e-014
rhumerus -23.4817 6.96331 -72.0671
rradius 35.9966
rwrist 7.96294
rhand -22.6093 4.78149
rfingers 7.12502
rthumb 3.82044 -25.164
lclavicle -9.34288e-015 1.08338e-014
lhumerus -16.7938 4.40654 70.3197
lradius 26.5039
lwrist -16.7762
lhand -27.4008 22.3288
lfingers 7.12502
lthumb -0.807201 52.3071
rfemur -65.6408 -17.2985 -3.28123
rtibia 114.907
rfoot -17.8126 9.238
rtoes -13.4109
lfemur -59.1816 21.3347 6.07202
ltibia 113.966
lfoot -17.8934 -18.3605
ltoes -15.0302
2977
root 0.908011 9.88745 -8.09943 -24.9934 -1.2034 1.27947
lowerback 34.282 1.72825 -2.13601
upperback 14.5616 1.48584 -0.171775
thorax -1.47074 0.639405 0.486319
lowerneck -9.1131 -1.66606 -8.96656
upperneck -11.6597 -0.697632 12.2914
head -1.82607 -0.197343 5.24305
rclavicle 1.01877e-014 -1.67973e-014
rhumerus -23.2525 6.93637 -71.9128
rradius 36.3863
rwrist 7.96246
rhand -23.1264 4.63247
rfingers 7.12502
rthumb 3.32102 -25.3214
lclavicle 1.01877e-014 -1.67973e-014
lhumerus -16.597 4.62493 70.2176
lradius 26.685
lwrist -16.1825
lhand -27.6274 22.8428
lfingers 7.12502
lthumb -1.02601 52.82
rfemur -65.5167 -17.3407 -3.50603
rtibia 114.891
rfoot -17.815 9.30379
rtoes -13.4773
lfemur -59.0626 21.2352 5.89425
ltibia 113.941
lfoot -17.9324 -18.2905
ltoes -15.0275
2978
root 0.908056 9.8879 -8.10313 -25.0372 -1.20742 1.28992
lowerback 34.2916 1.71153 -2.1287
upperback 14.5228 1.46483 -0.198736
thorax -1.51487 0.630945 0.460299
lowerneck -8.96424 -1.62726 -8.87682
upperneck -11.7261 -0.660624 12.2376
head -1.87465 -0.18697 5.21264
rclavicle -1.4561e-014 1.87852e-014
rhumerus -23.0176 6.81898 -71.7742
rradius 36.688
rwrist 8.05821
rhand -23.4973 4.71502
rfingers 7.12502
rthumb 2.96282 -25.2441
lclavicle -1.4561e-014 1.87852e-014
lhumerus -16.456 4.86198 70.0678
lradius 26.9026
lwrist -15.5017
lhand -27.7948 22.9863
lfingers 7.12502
lthumb -1.1877 52.9627
rfemur -65.481 -17.3145 -3.50898
rtibia 114.875
rfoot -17.8279 9.26796
rtoes -13.5751
lfemur -59.0381 21.2381 5.88931
ltibia 113.92
lfoot -17.8631 -18.2848
ltoes -15.068
2979
root 0.90829 9.88695 -8.10725 -25.0593 -1.23727 1.22516
lowerback 34.2874 1.68383 -2.05768
upperback 14.5015 1.45196 -0.189298
thorax -1.53578 0.627547 0.436616
lowerneck -8.92691 -1.575 -8.8456
upperneck -11.7931 -0.589739 12.2277
head -1.90818 -0.154471 5.20638
rclavicle -8.54774e-015 7.25564e-015
rhumerus -22.7046 6.55726 -71.5799
rradius 36.9201
rwrist 8.2056
rhand -23.8146 4.66266
rfingers 7.12502
rthumb 2.65646 -25.3005
lclavicle -8.54774e-015 7.25564e-015
lhumerus -16.271 5.20171 69.9311
lradius 27.1567
lwrist -14.8547
lhand -27.7642 23.0633
lfingers 7.12502
lthumb -1.15813 53.0399
rfemur -65.4703 -17.2831 -3.41293
rtibia 114.86
rfoot -17.8322 9.23998
rtoes -13.4664
lfemur -59.0485 21.2666 5.97711
ltibia 113.903
lfoot -17.7661 -18.3292
ltoes -14.9607
2980
root 0.909053 9.88427 -8.11041 -25.0923 -1.24927 1.17426
lowerback 34.2534 1.64656 -1.96977
upperback 14.5021 1.43295 -0.196575
thorax -1.52165 0.62254 0.389343
lowerneck -8.94138 -1.54462 -8.74923
upperneck -11.7129 -0.567832 12.1256
head -1.88713 -0.144293 5.15689
rclavicle 8.44835e-016 2.98177e-015
rhumerus -22.4486 6.32117 -71.4289
rradius 37.2
rwrist 7.95385
rhand -24.3729 4.54949
rfingers 7.12502
rthumb 2.11724 -25.4197
lclavicle 8.44835e-016 2.98177e-015
lhumerus -16.0341 5.50904 69.7946
lradius 27.4367
lwrist -14.2405
lhand -27.6659 23.7269
lfingers 7.12502
lthumb -1.06322 53.704
rfemur -65.4259 -17.2883 -3.36785
rtibia 114.853
rfoot -17.8161 9.33792
rtoes -13.2595
lfemur -59.0393 21.2606 6.04473
ltibia 113.896
lfoot -17.7523 -18.3395
ltoes -14.9929
2981
root 0.909921 9.88136 -8.11308 -25.1202 -1.354 1.06373
lowerback 34.2484 1.62103 -1.81394
upperback 14.4649 1.44814 -0.184851
thorax -1.5589 0.636931 0.314533
lowerneck -8.97642 -1.5561 -8.60586
upperneck -11.4457 -0.623993 11.9585
head -1.80105 -0.17138 5.07509
rclavicle -2.6339e-015 5.36719e-015
rhumerus -22.3233 6.10092 -71.2902
rradius 37.5483
rwrist 7.36656
rhand -25.4203 5.21026
rfingers 7.12502
rthumb 1.10565 -24.7666
lclavicle -2.6339e-015 5.36719e-015
lhumerus -15.9087 5.87325 69.6547
lradius 27.8446
lwrist -13.6175
lhand -27.4437 24.108
lfingers 7.12502
lthumb -0.848652 54.086
rfemur -65.4216 -17.1917 -3.19286
rtibia 114.841
rfoot -17.7693 9.37217
rtoes -13.2043
lfemur -58.9972 21.3612 6.25114
ltibia 113.899
lfoot -17.7509 -18.4176
ltoes -15.113
2982
root 0.910656 9.88057 -8.11517 -25.189 -1.44802 0.9841
lowerback 34.3518 1.61647 -1.71451
upperback 14.3822 1.4701 -0.15377
thorax -1.68466 0.651582 0.284983
lowerneck -8.99915 -1.55829 -8.54711
upperneck -11.1198 -0.661536 11.859
head -1.7 -0.186702 5.02866
rclavicle -7.95139e-015 1.23246e-014
rhumerus -22.2473 5.75486 -71.0677
rradius 37.9463
rwrist 7.18836
rhand -26.1596 6.10412
rfingers 7.12502
rthumb 0.391607 -23.8753
lclavicle -7.95139e-015 1.23246e-014
lhumerus -15.8744 6.13746 69.5503
lradius 28.2524
lwrist -12.9048
lhand -27.3861 24.0697
lfingers 7.12502
lthumb -0.79301 54.048
rfemur -65.3791 -17.078 -3.06584
rtibia 114.826
rfoot -17.724 9.33801
rtoes -13.1501
lfemur -58.8916 21.4592 6.43355
ltibia 113.908
lfoot -17.7663 -18.5027
ltoes -15.0843
2983
root 0.911779 9.88255 -8.11643 -25.3129 -1.41819 1.09734
lowerback 34.4675 1.641 -1.83195
upperback 14.3367 1.46103 -0.15226
thorax -1.77566 0.642174 0.3486
lowerneck -9.10126 -1.54073 -8.53709
upperneck -10.7802 -0.663233 11.7693
head -1.58575 -0.179929 4.99419
rclavicle -3.8763e-015 -3.77691e-015
rhumerus -22.0936 5.30484 -70.7797
rradius 38.4049
rwrist 7.3291
rhand -26.5076 6.68593
rfingers 7.12502
rthumb 0.0554468 -23.2938
lclavicle -3.8763e-015 -3.77691e-015
lhumerus -15.847 6.21321 69.5002
lradius 28.7107
lwrist -12.0964
lhand -27.5595 24.29
lfingers 7.12502
lthumb -0.960443 54.2676
rfemur -65.2469 -17.0695 -3.25543
rtibia 114.813
rfoot -17.7264 9.49041
rtoes -13.0679
lfemur -58.7152 21.3897 6.32692
ltibia 113.892
lfoot -17.8077 -18.4545
ltoes -14.9903
2984
root 0.912972 9.8833 -8.11812 -25.3943 -1.41505 1.16436
lowerback 34.5009 1.64759 -1.89303
upperback 14.3156 1.44896 -0.150864
thorax -1.81071 0.63348 0.38512
lowerneck -9.10304 -1.52211 -8.49744
upperneck -10.6366 -0.660137 11.6367
head -1.54643 -0.176552 4.94416
rclavicle -1.05107e-014 2.08724e-015
rhumerus -21.9043 4.75947 -70.5068
rradius 38.9125
rwrist 7.5472
rhand -26.7657 6.86878
rfingers 7.12502
rthumb -0.193802 -23.1109
lclavicle -1.05107e-014 2.08724e-015
lhumerus -15.8916 6.39123 69.4464
lradius 29.3795
lwrist -11.4197
lhand -27.5691 24.6788
lfingers 7.12502
lthumb -0.969705 54.6564
rfemur -65.1579 -17.0486 -3.37048
rtibia 114.8
rfoot -17.732 9.56431
rtoes -13.0365
lfemur -58.5972 21.3217 6.27144
ltibia 113.858
lfoot -17.7745 -18.4417
ltoes -14.6716
2985
root 0.913452 9.88487 -8.12065 -25.4549 -1.40028 1.18652
lowerback 34.5206 1.62959 -1.8914
upperback 14.294 1.42531 -0.168296
thorax -1.84009 0.622883 0.372965
lowerneck -8.97007 -1.50154 -8.46193
upperneck -10.6841 -0.644145 11.5775
head -1.58431 -0.173538 4.92066
rclavicle 2.03754e-015 7.35503e-015
rhumerus -21.7552 4.02762 -70.2699
rradius 39.469
rwrist 7.92983
rhand -26.482 6.4012
rfingers 7.12502
rthumb 0.0802166 -23.5785
lclavicle 2.03754e-015 7.35503e-015
lhumerus -15.857 6.62042 69.3531
lradius 30.0219
lwrist -10.8276
lhand -27.4461 25.2932
lfingers 7.12502
lthumb -0.850957 55.2713
rfemur -65.0652 -17.0519 -3.42399
rtibia 114.782
rfoot -17.7492 9.53057
rtoes -13.0313
lfemur -58.5151 21.2404 6.24219
ltibia 113.81
lfoot -17.7739 -18.4129
ltoes -14.3181
2986
root 0.913775 9.88556 -8.12291 -25.516 -1.39794 1.17044
lowerback 34.5023 1.61149 -1.8492
upperback 14.3227 1.41642 -0.174187
thorax -1.80187 0.620403 0.348105
lowerneck -8.96024 -1.48667 -8.48522
upperneck -10.6584 -0.623448 11.5978
head -1.57994 -0.162603 4.93103
rclavicle -8.72168e-015 1.04362e-014
rhumerus -21.5522 3.08483 -69.9852
rradius 40.108
rwrist 8.27376
rhand -26.0054 5.78351
rfingers 7.12502
rthumb 0.540504 -24.1955
lclavicle -8.72168e-015 1.04362e-014
lhumerus -15.6797 6.80881 69.2742
lradius 30.5874
lwrist -10.2466
lhand -27.4667 25.5859
lfingers 7.12502
lthumb -0.870854 55.5639
rfemur -64.9896 -17.0515 -3.41306
rtibia 114.764
rfoot -17.7586 9.50869
rtoes -13.044
lfemur -58.4491 21.2081 6.26351
ltibia 113.783
lfoot -17.8517 -18.3634
ltoes -14.255
